<!--?xml version="1.0" standalone="no"?-->
              <svg id="sw-js-blob-svg" viewBox="0 0 100 100" xmlns="http://www.w3.org/2000/svg" version="1.1">
                    <defs> 
                        <linearGradient id="sw-gradient" x1="0" x2="1" y1="1" y2="0">
                            <stop id="stop1" stop-color="rgba(248, 117, 55, 1)" offset="0%"></stop>
                            <stop id="stop2" stop-color="rgba(251, 168, 31, 1)" offset="100%"></stop>
                        </linearGradient>
                    </defs>
                <path fill="url(#sw-gradient)" d="M21.4,-26.7C26.9,-21,29.9,-13.4,32.6,-4.7C35.4,3.9,37.9,13.6,34.7,21C31.6,28.3,22.7,33.3,13.9,35.3C5,37.4,-4,36.5,-12.9,33.9C-21.7,31.3,-30.5,27,-36.3,19.6C-42.1,12.3,-45,1.9,-43.8,-8.2C-42.5,-18.3,-37.2,-28.2,-29.3,-33.5C-21.3,-38.8,-10.6,-39.6,-1.3,-38C8,-36.4,16,-32.5,21.4,-26.7Z" width="100%" height="100%" transform="translate(50 50)" style="transition: all 0.3s ease 0s;" stroke-width="0"></path>
              </svg>